<?xml version="1.0" encoding="utf-8"?>
<!-- Generator: Adobe Illustrator 16.0.0, SVG Export Plug-In . SVG Version: 6.00 Build 0)  -->
<!DOCTYPE svg PUBLIC "-//W3C//DTD SVG 1.1//EN" "http://www.w3.org/Graphics/SVG/1.1/DTD/svg11.dtd">
<svg version="1.1" id="Layer_1" xmlns="http://www.w3.org/2000/svg" xmlns:xlink="http://www.w3.org/1999/xlink" x="0px" y="0px"
	 width="2267.715px" height="2409.447px" viewBox="0 0 2267.715 2409.447" enable-background="new 0 0 2267.715 2409.447"
	 xml:space="preserve">
<g>
	<path fill="#E5E5E5" d="M526.443,848.462c-10.067,95.539-147.645-34.394-131.135-169.284
		c-40.583,54.426-89.39,52.568-114.306,36.848c-41.91-26.416-46.298-89.369-17.077-142.073l0,0
		c-28.808,32.506-92.838,34.551-117.754-0.938c-21.336-30.396-8.75-64.631,14.488-97.307
		c-50.524,15.145-78.277,18.617-92.575-12.271C12.355,343.077,333.818,50.216,556.619,62.153
		c209.627,11.23,233.957,255.958,233.957,255.958C729.318,356.029,550.846,616.563,526.443,848.462z"/>
</g>
<g>
	<path fill="#E5E5E5" d="M1002.208,2359.61c43.042-18.938,35.376-90.534,23.64-126.007c-13.899-41.98-54.396-85.658-110.68-116.033
		c-40.709-21.959,143.939-529.067,144.619-531.348c-37.561-7.656-42.979-23.982-42.979-23.982s9.999-33.943,23.791-58.377
		c12.583-22.244,33.002-53.305,33.002-53.305c-232.399-22.628-353.017-80.608-439.775-150.266
		c-15.692-12.574-191.214,259.577-191.266,607.92c-0.044,342.903,332.928,388.752,332.928,388.752
		c-16.684-4.646-28.92,41.81-19.399,72.604C756.089,2369.569,943.826,2385.317,1002.208,2359.61z"/>
</g>
<defs>
	<filter id="Adobe_OpacityMaskFilter" filterUnits="userSpaceOnUse" x="569.641" y="260.995" width="1101.698" height="1130.86">
		<feFlood  style="flood-color:white;flood-opacity:1" result="back"/>
		<feBlend  in="SourceGraphic" in2="back" mode="normal"/>
	</filter>
</defs>
<mask maskUnits="userSpaceOnUse" x="569.641" y="260.995" width="1101.698" height="1130.86" id="SVGID_1_">
	<g filter="url(#Adobe_OpacityMaskFilter)">
		<path d="M1209.428,1129.409c0,54.248-41.539,98.217-92.752,98.217l0,0c-51.229,0-92.759-43.969-92.759-98.217V923.68
			c0-54.25,41.529-98.242,92.759-98.242l0,0c51.213,0,92.752,43.993,92.752,98.242V1129.409z"/>
	</g>
</mask>
<g mask="url(#SVGID_1_)">
	<g>
		<path fill="#E5E5E5" d="M1132.621,260.995c268.051,0,368.018,156.002,456.875,338.773
			c97.602,200.677,118.428,497.839,4.406,624.53c-106.529,118.313-294.408,164.635-477.227,167.557l7.631-0.015
			c-182.806-2.907-370.706-49.174-477.223-167.448c-114.038-126.629-93.19-423.587,4.385-624.134
			c88.877-182.658,204.78-338.777,472.838-338.777L1132.621,260.995z"/>
	</g>
</g>
<g>
	<path fill="#E5E5E5" d="M1712.463,847.88c9.561,95.606,147.824-33.611,132.051-168.565c40.297,54.624,89.105,53.039,114.102,37.474
		c42.051-26.196,46.766-89.137,17.836-141.998l0,0c28.635,32.661,92.67,35.05,117.771-0.311c21.504-30.273,9.09-64.578-13.98-97.385
		c50.447,15.432,78.188,19.052,92.656-11.759c56.367-120.061-263.508-414.652-486.393-403.918
		c-209.676,10.101-235.313,254.705-235.313,254.705C1512.252,354.365,1689.331,615.85,1712.463,847.88z"/>
</g>
<g>
	<path fill="#E5E5E5" d="M1238.999,2359.61c-43.049-18.938-35.375-90.534-23.633-126.007
		c13.896-41.98,54.383-85.658,110.686-116.033c40.682-21.959-143.955-529.067-144.625-531.348
		c37.561-7.656,42.969-23.982,42.969-23.982s-10.006-33.943-23.783-58.377c-12.59-22.244-40.863-53.305-40.863-53.305
		c232.398-22.628,360.855-80.608,447.621-150.266c15.697-12.574,191.213,259.577,191.275,607.92
		c0.047,342.903-332.936,388.752-332.936,388.752c16.678-4.646,28.922,41.81,19.41,72.604
		C1485.12,2369.569,1297.375,2385.317,1238.999,2359.61z"/>
</g>
</svg>
