<?xml version="1.0" encoding="utf-8"?>
<!-- Generator: Adobe Illustrator 16.0.0, SVG Export Plug-In . SVG Version: 6.00 Build 0)  -->
<!DOCTYPE svg PUBLIC "-//W3C//DTD SVG 1.1//EN" "http://www.w3.org/Graphics/SVG/1.1/DTD/svg11.dtd">
<svg version="1.1" id="Layer_1" xmlns="http://www.w3.org/2000/svg" xmlns:xlink="http://www.w3.org/1999/xlink" x="0px" y="0px"
	 width="714.331px" height="39.686px" viewBox="0 0 714.331 39.686" enable-background="new 0 0 714.331 39.686"
	 xml:space="preserve">
<g>
	<path fill="#EA8433" d="M571.683,31.482h5.93v2.767h-11.7V4.466h11.699v2.766h-5.93L571.683,31.482L571.683,31.482z"/>
</g>
<g>
	<path fill="#00AA59" d="M425.75,11.332l7.763-4.617l4.455,7.14l-9.056,5.478l9.056,5.475l-4.455,7.195l-7.763-4.617v7.783h-8.622
		V27.33l-7.81,4.672l-4.455-7.195l9.056-5.475l-9.056-5.478l4.455-7.193l7.81,4.671V3.549h8.622V11.332z"/>
</g>
<g>
	<path fill="#7B64AC" d="M260.091,8.883h31.954v7.666h-31.954V8.883z M260.224,22.165h31.689v7.665h-31.689V22.165L260.224,22.165z"
		/>
</g>
<g>
	<path fill="#FCD15D" d="M121.885,21.887h-12.784v-5.063h12.785V4.008h5.841v12.816h12.785v5.063h-12.786v12.817h-5.841V21.887z"/>
</g>
<g>
	<path fill="#D25D64" d="M17.487,37.87h-1.519c-1.527,0-2.848-0.091-3.961-0.275c-1.113-0.186-2.08-0.629-2.898-1.335
		c-0.819-0.705-1.334-1.54-1.545-2.499c-0.212-0.962-0.317-2.368-0.317-4.218c0-1.852-0.102-3.222-0.304-4.111
		s-0.713-1.64-1.532-2.251c-0.819-0.61-2.112-0.928-3.878-0.951v-2.901c1.766-0.022,3.059-0.34,3.878-0.952
		c0.818-0.612,1.33-1.362,1.532-2.252c0.202-0.889,0.304-2.26,0.304-4.11c0-1.851,0.105-3.256,0.317-4.217
		c0.211-0.961,0.727-1.795,1.545-2.5c0.819-0.706,1.785-1.151,2.898-1.334c1.113-0.184,2.434-0.276,3.961-0.276h1.519v2.775h-0.855
		c-1.914,0-3.087,0.327-3.52,0.978c-0.432,0.654-0.648,2.415-0.648,5.287c0,2.574-0.524,4.454-1.573,5.64
		c-1.049,1.186-2.64,1.994-4.775,2.42c2.134,0.415,3.726,1.217,4.775,2.401c1.049,1.188,1.573,3.067,1.573,5.642
		c0,2.871,0.216,4.633,0.648,5.285c0.432,0.653,1.606,0.979,3.52,0.979h0.855V37.87z"/>
</g>
<g>
	<path fill="#D35C64" d="M699.457,25.35h-3.217l-2.35,7.231h-5.16l2.377-7.231h-6.463l2.318-3.409h5.274l1.623-4.93h-5.971
		l2.377-3.41h4.695l2.436-7.47h5.16l-2.463,7.47h3.217l2.436-7.47h5.16l-2.465,7.47h5.914l-2.377,3.41h-4.639l-1.623,4.93h5.362
		l-2.35,3.409h-4.146l-2.348,7.231h-5.16L699.457,25.35z M697.369,21.94h3.22l1.62-4.93h-3.217L697.369,21.94z"/>
</g>
</svg>
